<svg xmlns="http://www.w3.org/2000/svg" width="20" height="20" viewBox="0 0 20 20"><g transform="translate(468.26 -15.078)"><path d="M-458.283,35.069h-7.662a2.226,2.226,0,0,1-2.292-1.916,2.016,2.016,0,0,1-.019-.349q0-6.892,0-13.783a2.477,2.477,0,0,1,.574-1.518c.449-.6.895-1.2,1.364-1.778A1.664,1.664,0,0,1-465,15.085c1.235-.009,2.47,0,3.7,0,3.191,0,6.382,0,9.573,0a1.672,1.672,0,0,1,1.45.676c.514.678,1.076,1.319,1.593,1.994a2.1,2.1,0,0,1,.412,1.313c0,4.562-.016,9.124.005,13.686a2.311,2.311,0,0,1-2.342,2.331C-453.162,35.049-455.723,35.069-458.283,35.069Zm2.229-9.986v-.266c0-.585,0-1.169,0-1.754,0-.155-.047-.2-.2-.2q-2.017.008-4.035,0c-.147,0-.189.048-.188.191.006.6,0,1.2,0,1.793,0,.075-.007.149-.011.244h-3.759l5.993,5.993,6-6Zm5.294-7.8c-.275-.305-.534-.579-.775-.867a.526.526,0,0,0-.45-.2q-6.394.008-12.789,0a1.189,1.189,0,0,0-.156,0c-.043.006-.1.011-.123.04-.271.328-.536.661-.827,1.022Z" transform="translate(0)"/></g></svg>