<svg xmlns="http://www.w3.org/2000/svg" width="35" height="35" viewBox="0 0 35 35"><g transform="translate(-62 -506)"><circle cx="17.5" cy="17.5" r="17.5" transform="translate(62 506)" fill="#023d51"/><g transform="translate(-3827.923 1144.587)"><path d="M3912.687-453.981c-1.281,0-2.562,0-3.843,0a.469.469,0,0,1-.5-.494c.006-1.173,0-2.347.006-3.52a.6.6,0,0,0-.251-.522,7.461,7.461,0,0,1-2.452-3.351,7.413,7.413,0,0,1-.457-2.436c-.011-.485-.007-.97,0-1.454a1.372,1.372,0,0,1,1.256-1.381,1.362,1.362,0,0,1,1.455,1.12,3.656,3.656,0,0,1,.03.482c0,.419-.007.839.006,1.258a4.674,4.674,0,0,0,1.4,3.24,4.618,4.618,0,0,0,2.174,1.246,4.78,4.78,0,0,0,5.21-2,4.725,4.725,0,0,0,.79-2.691c0-.419,0-.839,0-1.258a1.367,1.367,0,0,1,1.006-1.347,1.366,1.366,0,0,1,1.7,1.043,2.248,2.248,0,0,1,.033.366c0,.435.014.87,0,1.3a7.561,7.561,0,0,1-2.943,5.87.7.7,0,0,0-.3.6c.011,1.139,0,2.278.009,3.416a.481.481,0,0,1-.514.51C3915.233-453.988,3913.96-453.981,3912.687-453.981Z" transform="translate(-5.379 -156.73)" fill="#fff"/><path d="M3998.567-626.423c.013-.23.023-.461.042-.691a.6.6,0,0,0-.146-.457c-.291-.348-.576-.7-.866-1.049a.48.48,0,0,1-.137-.4.447.447,0,0,1,.341-.379c.469-.132.938-.267,1.407-.4a.573.573,0,0,0,.343-.252c.254-.389.511-.777.767-1.164a.456.456,0,0,1,.816,0c.251.377.508.751.746,1.136a.748.748,0,0,0,.495.32q.639.173,1.274.359a.449.449,0,0,1,.231.749c-.271.339-.544.677-.83,1a.78.78,0,0,0-.2.622c.038.444.052.891.068,1.336a.453.453,0,0,1-.656.451c-.439-.174-.878-.346-1.315-.523a.563.563,0,0,0-.446,0c-.437.178-.876.351-1.315.524a.454.454,0,0,1-.65-.451c.006-.246.023-.492.035-.737Z" transform="translate(-93.382 0)" fill="#fff"/><path d="M4017.042-455.272a2.336,2.336,0,0,1,2.325-2.34,2.348,2.348,0,0,1,2.344,2.338,2.337,2.337,0,0,1-2.336,2.33A2.328,2.328,0,0,1,4017.042-455.272Z" transform="translate(-112.066 -165.821)" fill="#fff"/></g></g></svg>