<svg class="bell" xmlns="http://www.w3.org/2000/svg" width="13.608" height="16.301" viewBox="0 0 13.608 16.301"><g transform="translate(-8177.651 -4403.285)"><path d="M8193.8,4404.667c0-.235-.008-.446,0-.656a.7.7,0,0,1,1.405-.073c.023.229,0,.462,0,.718.182.052.34.1.5.14a4.791,4.791,0,0,1,3.572,4.59c.006.6.008,1.208,0,1.811a4.45,4.45,0,0,0,1.551,3.511,1.2,1.2,0,0,1,.451,1.152,1.21,1.21,0,0,1-1.2,1.028c-.2.015-.4.007-.6.007q-5.117,0-10.226,0a3.586,3.586,0,0,1-.475-.025,1.155,1.155,0,0,1-1.03-.858,1.142,1.142,0,0,1,.374-1.262,4.312,4.312,0,0,0,1.366-2.061,6.66,6.66,0,0,0,.229-1.4c.05-.866-.021-1.742.081-2.6a4.7,4.7,0,0,1,3.644-3.938C8193.558,4404.73,8193.657,4404.7,8193.8,4404.667Z" transform="translate(-10.05)" fill="#fff"/><path d="M8255.792,4627.042h4.932a2.449,2.449,0,0,1-2.38,2.049A2.475,2.475,0,0,1,8255.792,4627.042Z" transform="translate(-73.804 -209.506)" fill="#fff"/></g></svg>