<svg xmlns="http://www.w3.org/2000/svg" width="13.83" height="10.562" viewBox="0 0 13.83 10.562"><g transform="translate(-1855.624 140.847)"><path d="M1911.689-130.779c-.021-.019-.043-.036-.063-.056a5.063,5.063,0,0,0-2.087-1.225,6.947,6.947,0,0,0-1.629-.3c-.187-.013-.374-.021-.562-.026a.51.51,0,0,1-.548-.558q0-3.655,0-7.31a.494.494,0,0,1,.329-.514.628.628,0,0,1,.21-.03,7.21,7.21,0,0,1,1.553.178,4.654,4.654,0,0,1,2.017.99,3.872,3.872,0,0,1,.718.839.625.625,0,0,1,.085.348q0,3,0,6v1.653Z" transform="translate(-49.552 -0.046)" fill="#6e8d98"/><path d="M2085.75-130.813c0-.045,0-.073,0-.1q0-3.794,0-7.588a.7.7,0,0,1,.126-.4,3.893,3.893,0,0,1,1.149-1.129,4.776,4.776,0,0,1,1.161-.531,6.962,6.962,0,0,1,1.951-.285.5.5,0,0,1,.525.536q0,1.9,0,3.794,0,1.77,0,3.541a.492.492,0,0,1-.273.48.707.707,0,0,1-.259.06c-.318.024-.639.024-.956.063a5.85,5.85,0,0,0-2.879,1.091c-.162.122-.307.266-.459.4Z" transform="translate(-222.824 0)" fill="#6e8d98"/><path d="M1861.446-78.163c-.116-.024-.209-.047-.3-.063-.268-.044-.535-.1-.8-.124a11.026,11.026,0,0,0-1.8-.035,13.446,13.446,0,0,0-1.711.211c-.215.041-.429.089-.645.121a.488.488,0,0,1-.554-.465c0-.018,0-.037,0-.055q0-3.9,0-7.793a.492.492,0,0,1,.28-.476.48.48,0,0,1,.173-.048c.1-.008.206,0,.308-.007.079-.005.1.027.1.1a.633.633,0,0,0,0,.079v5.94a1.356,1.356,0,0,0,.166.7,1.2,1.2,0,0,0,.726.583,1.806,1.806,0,0,0,.42.062,8.268,8.268,0,0,1,1.29.132,4.983,4.983,0,0,1,1.9.758c.142.1.274.214.41.322A.567.567,0,0,1,1861.446-78.163Z" transform="translate(0 -52.239)" fill="#6e8d98"/><path d="M2108.532-78.129c.062-.055.121-.113.186-.165a4.541,4.541,0,0,1,1.445-.766,6.961,6.961,0,0,1,2.017-.316,1.343,1.343,0,0,0,.688-.181,1.181,1.181,0,0,0,.552-.7,1.774,1.774,0,0,0,.066-.475q.007-2.994,0-5.988c0-.125,0-.129.124-.124a2,2,0,0,1,.392.03.464.464,0,0,1,.338.439q0,.028,0,.055,0,3.9,0,7.794a.5.5,0,0,1-.262.472.552.552,0,0,1-.392.04c-.347-.065-.693-.141-1.042-.193a11.257,11.257,0,0,0-2.281-.137c-.379.02-.758.054-1.135.1-.209.023-.414.077-.621.117l-.068.013Z" transform="translate(-244.888 -52.294)" fill="#6e8d98"/></g></svg>