<svg xmlns="http://www.w3.org/2000/svg" width="55" height="55" viewBox="0 0 55 55">
  <g id="Grupo_4303" data-name="Grupo 4303" transform="translate(-761 -165)">
    <circle id="Elipse_6" data-name="Elipse 6" cx="27.5" cy="27.5" r="27.5" transform="translate(761 165)" fill="#023d51"/>
    <path id="bxs-brain" d="M4.429,20.157a3.6,3.6,0,0,0,3.461,2.4h.06a3.058,3.058,0,0,0,3,2.444,2.979,2.979,0,0,0,1.388-.345,1.091,1.091,0,0,0,.566-.97V4.13a1.1,1.1,0,0,0-.863-1.081,2.556,2.556,0,0,0-1.627.221,2.392,2.392,0,0,0-1.3,2.176v.061a3.056,3.056,0,0,0-3.018,4.876,3.67,3.67,0,0,0-1.407,6.712,3.793,3.793,0,0,0-.257,3.063Zm17.478-9.774a3.056,3.056,0,0,0-3.018-4.876V5.446a2.393,2.393,0,0,0-1.3-2.176,2.552,2.552,0,0,0-1.626-.221A1.1,1.1,0,0,0,15.1,4.13V23.686a1.091,1.091,0,0,0,.568.97A2.965,2.965,0,0,0,17.055,25a3.058,3.058,0,0,0,3-2.445h.062a3.6,3.6,0,0,0,3.461-2.4,3.79,3.79,0,0,0-.257-3.063,3.67,3.67,0,0,0-1.409-6.711Z" transform="translate(775 178.998)" fill="#fff"/>
  </g>
</svg>
