<svg xmlns="http://www.w3.org/2000/svg" width="35" height="35" viewBox="0 0 35 35"><g transform="translate(-82 -618)"><circle cx="17.5" cy="17.5" r="17.5" transform="translate(82 618)" fill="rgba(54,206,36,0.1)"/><g transform="translate(401.01 466.716)"><path d="M-308.947,264.681l2.4.836,5.087,1.77a1.507,1.507,0,0,0,1.025,0q3.659-1.275,7.32-2.544l.149-.051c0,.066.008.122.008.178q0,2.526,0,5.051a1.865,1.865,0,0,1-1.9,1.98q-6.1,0-12.2,0a1.866,1.866,0,0,1-1.9-1.98q0-2.526,0-5.051Z" transform="translate(-0.059 -95.614)" fill="#36ce24"/><path d="M-298.347,164.371h.2c1.072,0,2.144.019,3.216-.005a1.9,1.9,0,0,1,1.918,2c-.013.445-.007.891,0,1.336a.2.2,0,0,1-.153.23q-2.871.991-5.738,1.991c-.631.219-1.263.436-1.892.659a.634.634,0,0,1-.441,0q-3.806-1.327-7.615-2.647a.193.193,0,0,1-.16-.224c.01-.461,0-.923,0-1.385a1.865,1.865,0,0,1,1.863-1.95c1.088,0,2.175,0,3.263,0h.208c0-.253-.005-.49,0-.727a1.36,1.36,0,0,1,1.075-1.334,1.624,1.624,0,0,1,.326-.024q1.257,0,2.514,0a1.356,1.356,0,0,1,1.409,1.467C-298.346,163.952-298.347,164.151-298.347,164.371Zm-3.99-.012h2.652v-.674h-2.652Z" transform="translate(0)" fill="#36ce24"/></g></g></svg>