<svg id="calendar2-event" xmlns="http://www.w3.org/2000/svg" width="11.744" height="11.744" viewBox="0 0 11.744 11.744">
  <path id="Trazado_2630" data-name="Trazado 2630" d="M2.936.367a.367.367,0,1,0-.734,0V.734H1.468A1.468,1.468,0,0,0,0,2.2v8.074a1.468,1.468,0,0,0,1.468,1.468h8.808a1.468,1.468,0,0,0,1.468-1.468V2.2A1.468,1.468,0,0,0,10.276.734H9.542V.367a.367.367,0,1,0-.734,0V.734H2.936Zm-1.468,2.2A.367.367,0,0,1,1.835,2.2H9.909a.367.367,0,0,1,.367.367V3.3a.367.367,0,0,1-.367.367H1.835A.367.367,0,0,1,1.468,3.3ZM8.441,5.138a.367.367,0,0,0-.367.367v.734a.367.367,0,0,0,.367.367h.734a.367.367,0,0,0,.367-.367V5.505a.367.367,0,0,0-.367-.367Z" fill="#6e8d98" fill-rule="evenodd"/>
</svg>
