<svg xmlns="http://www.w3.org/2000/svg" width="44.877" height="35.271" viewBox="0 0 44.877 35.271">
  <g id="Grupo_4766" data-name="Grupo 4766" transform="translate(-1386.61 1784.183)" opacity="0.7">
    <path id="Trazado_2869" data-name="Trazado 2869" d="M1409-1748.914q-8.73,0-17.461,0a4.8,4.8,0,0,1-4.873-4.087,4.817,4.817,0,0,1-.051-.846q0-10.282,0-20.562a4.8,4.8,0,0,1,4.993-4.966c2.6,0,5.2-.008,7.8.008.346,0,.517-.1.6-.429.086-.355.21-.7.327-1.049a4.8,4.8,0,0,1,4.621-3.332q4.077-.009,8.155,0a4.778,4.778,0,0,1,4.585,3.238,9.753,9.753,0,0,1,.368,1.14c.09.4.283.519.694.516q3.9-.03,7.8-.006a4.772,4.772,0,0,1,4.87,4.084,4.751,4.751,0,0,1,.051.847q0,10.23,0,20.462a4.8,4.8,0,0,1-4.975,4.983Q1417.755-1748.909,1409-1748.914Zm.01-8.052a8.016,8.016,0,0,0,8.019-7.852,8.017,8.017,0,0,0-7.863-8.108,8.014,8.014,0,0,0-8.094,7.877A8.012,8.012,0,0,0,1409.009-1756.966Z" transform="translate(0 0)" fill="#fff"/>
    <path id="Trazado_2870" data-name="Trazado 2870" d="M1484.126-1707.425a4.811,4.811,0,0,1-4.863,4.788,4.809,4.809,0,0,1-4.789-4.861,4.808,4.808,0,0,1,4.861-4.788A4.812,4.812,0,0,1,1484.126-1707.425Z" transform="translate(-70.252 -57.484)" fill="#fff"/>
  </g>
</svg>
