<svg xmlns="http://www.w3.org/2000/svg" width="27.363" height="27.358" viewBox="0 0 27.363 27.358">
  <g id="Grupo_7167" data-name="Grupo 7167" transform="translate(0 0)">
    <path id="Trazado_4228" data-name="Trazado 4228" d="M-3825.579,1761.683h24.5a4.861,4.861,0,0,1,.534.008.8.8,0,0,1,.735.778.8.8,0,0,1-.717.8,3.809,3.809,0,0,1-.48.01h-24.954c-.988,0-1.205-.212-1.205-1.174q0-12.5,0-25.006a3.417,3.417,0,0,1,.012-.48.8.8,0,0,1,.761-.695.791.791,0,0,1,.806.7,3.964,3.964,0,0,1,.012.534q0,11.916,0,23.831Z" transform="translate(3827.173 -1735.918)" fill="#36ce24"/>
    <path id="Trazado_4229" data-name="Trazado 4229" d="M-3612.412,1819.176q0,3.474,0,6.948c0,.836-.25,1.089-1.074,1.091q-1.363,0-2.726,0c-.787,0-1.049-.263-1.053-1.063-.006-1.443,0-2.886,0-4.329q0-4.757,0-9.513c0-.962.209-1.172,1.159-1.175.891,0,1.781-.007,2.672,0,.76.007,1.022.276,1.023,1.038Q-3612.409,1815.675-3612.412,1819.176Z" transform="translate(3639.774 -1803.067)" fill="#36ce24"/>
    <path id="Trazado_4230" data-name="Trazado 4230" d="M-3672.295,1847.5q0,2.645,0,5.29c0,.87-.25,1.116-1.105,1.117-.909,0-1.817.005-2.725,0-.663,0-.965-.278-.966-.931q-.013-5.5,0-11.007c0-.667.279-.921.968-.93q1.415-.018,2.832,0c.736.008.992.266,1,1.013C-3672.29,1843.864-3672.295,1845.681-3672.295,1847.5Z" transform="translate(3693.19 -1829.757)" fill="#36ce24"/>
    <path id="Trazado_4231" data-name="Trazado 4231" d="M-3778.937,1752.887c-.186,0-.373.012-.557,0a.8.8,0,0,1-.823-.8.762.762,0,0,1,.791-.772c1.335-.021,2.671-.03,4.006,0a.768.768,0,0,1,.69,1.177c-.5,1.06-1.033,2.108-1.573,3.15a.806.806,0,0,1-1.1.358.81.81,0,0,1-.323-1.068,4.7,4.7,0,0,0,.32-.838c-.181.088-.364.171-.541.266l-17.581,9.44a3.489,3.489,0,0,1-.525.258.777.777,0,0,1-.987-.408.771.771,0,0,1,.284-.985,4.3,4.3,0,0,1,.463-.264l17.065-9.16c.137-.073.268-.158.4-.237Z" transform="translate(3800.424 -1749.642)" fill="#36ce24"/>
    <path id="Trazado_4232" data-name="Trazado 4232" d="M-3736.936,1875.764c0-1.247,0-2.493,0-3.74,0-.816.245-1.058,1.052-1.065q1.363-.011,2.725,0c.771.008,1.02.257,1.022,1.04q.009,3.793,0,7.587c0,.766-.274,1.032-1.025,1.036q-1.362.006-2.725,0c-.784,0-1.045-.264-1.049-1.066C-3736.941,1878.292-3736.936,1877.028-3736.936,1875.764Z" transform="translate(3746.613 -1856.475)" fill="#36ce24"/>
    <path id="Trazado_4233" data-name="Trazado 4233" d="M-3797.251,1904.06c0-.748-.005-1.5,0-2.244.006-.657.281-.946.942-.955,1-.014,2-.015,2.992,0,.64.011.908.281.914.928q.019,2.3,0,4.595c-.006.653-.3.923-.969.927q-1.469.01-2.939,0c-.651-.005-.933-.295-.939-.955C-3797.257,1905.592-3797.251,1904.826-3797.251,1904.06Z" transform="translate(3800.461 -1883.167)" fill="#36ce24"/>
  </g>
</svg>
