<svg xmlns="http://www.w3.org/2000/svg" width="35" height="35" viewBox="0 0 35 35">
  <g id="Grupo_5001" data-name="Grupo 5001" transform="translate(-386 -1169)">
    <circle id="Elipse_193" data-name="Elipse 193" cx="17.5" cy="17.5" r="17.5" transform="translate(386 1169)" fill="rgba(54,206,36,0.1)"/>
    <g id="Grupo_4687" data-name="Grupo 4687" transform="translate(-476.836 1457.56)">
      <path id="Trazado_2823" data-name="Trazado 2823" d="M890.3-277.257c.329.6.633,1.166.939,1.727q.975,1.786,1.954,3.571a.894.894,0,0,0,.247.27.772.772,0,0,1,.318.654,4.679,4.679,0,0,1-3.339,4.406,4.629,4.629,0,0,1-5.833-3.5,3.842,3.842,0,0,1-.086-1.028,1.183,1.183,0,0,1,.266-.512c.086-.127.234-.216.308-.347q1.406-2.487,2.8-4.982c.04-.072.076-.147.127-.247-.093-.007-.163-.016-.233-.016-1.392,0-2.785,0-4.177-.005a.286.286,0,0,0-.319.226,2.493,2.493,0,0,1-1.519,1.494.242.242,0,0,0-.19.269q.007,4.961,0,9.921c0,.05.006.1.007.123a10.493,10.493,0,0,1,1.157.467,3.965,3.965,0,0,1,2.157,3.4.729.729,0,0,1-.8.868q-3.24,0-6.481,0a.726.726,0,0,1-.806-.839,4.01,4.01,0,0,1,3.06-3.786c.208-.048.259-.132.259-.336q-.01-4.9,0-9.795a.308.308,0,0,0-.236-.345,2.468,2.468,0,0,1-1.478-1.5.247.247,0,0,0-.269-.2c-1.417.006-2.835,0-4.253,0a1.775,1.775,0,0,0-.194.024c.048.095.083.169.122.24l2.769,5.084c.036.066.063.156.12.189.492.278.45.737.393,1.184a4.638,4.638,0,0,1-3.546,3.992,4.629,4.629,0,0,1-5.5-3.2,8.31,8.31,0,0,1-.2-1.295.652.652,0,0,1,.33-.639.525.525,0,0,0,.167-.18q1.438-2.628,2.87-5.259a.6.6,0,0,0,.029-.093c-.079-.005-.149-.014-.22-.014h-1.671c-.62,0-.96-.255-.957-.719s.338-.705.942-.705q4.317,0,8.633.005a.366.366,0,0,0,.413-.283,2.539,2.539,0,0,1,2.417-1.6,2.6,2.6,0,0,1,2.39,1.65.3.3,0,0,0,.345.233q4.367-.01,8.734,0a1.561,1.561,0,0,1,.4.032.7.7,0,0,1,.509.75.717.717,0,0,1-.728.639C891.744-277.252,891.044-277.257,890.3-277.257Zm-15.282,5.416-2.541-4.672-2.541,4.672Zm14.125-4.673-2.535,4.664h5.072Z" transform="translate(0)" fill="#36ce24"/>
    </g>
  </g>
</svg>
