<svg xmlns="http://www.w3.org/2000/svg" width="35" height="35" viewBox="0 0 35 35">
  <g id="Grupo_5718" data-name="Grupo 5718" transform="translate(-92 -801)">
    <circle id="Elipse_230" data-name="Elipse 230" cx="17.5" cy="17.5" r="17.5" transform="translate(92 801)" fill="rgba(54,206,36,0.1)"/>
  </g>
  <g id="Grupo_5722" data-name="Grupo 5722" transform="translate(8.203 8.51)">
    <g id="Grupo_5721" data-name="Grupo 5721" transform="translate(0 9.395)">
      <path id="Trazado_3870" data-name="Trazado 3870" d="M7198.22,838.542c1.23-1.2,2.457-2.489,3.78-3.668a3.611,3.611,0,0,1,3.9-.621,5.535,5.535,0,0,0,2.147.391c.471-.008.944-.019,1.412.016a1.359,1.359,0,0,1,1.3,1.193,1.322,1.322,0,0,1-1.073,1.355,2.521,2.521,0,0,1-.608.07c-.555.009-1.11,0-1.666,0a.7.7,0,0,0-.285.014c-.122.038-.334.151-.333.32s.213.279.337.315a.626.626,0,0,0,.248.013c.942,0,1.884.012,2.825-.009a1.021,1.021,0,0,0,.577-.21c1.138-.916,2.254-1.857,3.389-2.777a2.1,2.1,0,0,1,1.791-.589,1.491,1.491,0,0,1,.4.149.564.564,0,0,1,.185.933c-1.5,1.7-3,3.4-4.535,5.077a2.458,2.458,0,0,1-1.9.738c-2.052,0-4.1.007-6.158-.009a1,1,0,0,0-.846.359c-.291.336-.618.641-.9.928Z" transform="translate(-7198.22 -833.947)" fill="#36ce24"/>
    </g>
    <path id="settings" d="M6.991,4.738l.863.671a.2.2,0,0,1,.058.269L7.087,7.1a.168.168,0,0,1-.249.077l-1.017-.4a3.87,3.87,0,0,1-.691.4L4.977,8.248a.183.183,0,0,1-.211.173H3.136a.2.2,0,0,1-.211-.173L2.771,7.174a3.146,3.146,0,0,1-.691-.4l-1.017.4A.187.187,0,0,1,.815,7.1L-.01,5.678a.2.2,0,0,1,.058-.269l.863-.671q-.019-.23-.019-.4t.019-.4L.047,3.261A.2.2,0,0,1-.01,2.992l.825-1.42A.173.173,0,0,1,1.064,1.5l1.017.4a3.87,3.87,0,0,1,.691-.4L2.925.422A.2.2,0,0,1,3.136.249h1.63a.183.183,0,0,1,.211.173L5.131,1.5a3.146,3.146,0,0,1,.691.4l1.017-.4a.187.187,0,0,1,.249.077l.825,1.42a.2.2,0,0,1-.058.269l-.863.671a2.486,2.486,0,0,1,.038.4A2.486,2.486,0,0,1,6.991,4.738ZM3.951,5.774A1.441,1.441,0,0,0,5.38,4.335a1.386,1.386,0,0,0-.422-1.017,1.413,1.413,0,0,0-2.014,0,1.436,1.436,0,0,0,0,2.033A1.375,1.375,0,0,0,3.951,5.774Z" transform="translate(6.799 -0.249)" fill="#36ce24"/>
  </g>
</svg>
