<svg xmlns="http://www.w3.org/2000/svg" width="35" height="35" viewBox="0 0 35 35">
  <g id="Grupo_4997" data-name="Grupo 4997" transform="translate(-680 -752)">
    <g id="Grupo_4794" data-name="Grupo 4794" transform="translate(588 -49)">
      <circle id="Elipse_230" data-name="Elipse 230" cx="17.5" cy="17.5" r="17.5" transform="translate(92 801)" fill="rgba(54,206,36,0.1)"/>
    </g>
    <g id="Grupo_4796" data-name="Grupo 4796" transform="translate(-2083.221 1508.315)">
      <path id="Trazado_2889" data-name="Trazado 2889" d="M2772.221-730.183v-18.132h1.049v17.062h2.138v-3.159h3.182v3.163h1.066V-737.6h3.2v6.355h1.063V-740.8h3.187v9.555h3.252v1.063Z" fill="#36ce24"/>
      <path id="Trazado_2890" data-name="Trazado 2890" d="M2826.058-716.339h-.911v-1.054h2.629v2.628h-1.047v-.705a15.944,15.944,0,0,1-10.559,6.04.586.586,0,0,1-.03-.09c-.039-.317-.076-.634-.116-.962A14.893,14.893,0,0,0,2826.058-716.339Z" transform="translate(-40.68 -28.718)" fill="#36ce24"/>
    </g>
  </g>
</svg>
