<svg xmlns="http://www.w3.org/2000/svg" width="35" height="35" viewBox="0 0 35 35">
  <g id="Grupo_4996" data-name="Grupo 4996" transform="translate(-386 -752)">
    <g id="Grupo_4792" data-name="Grupo 4792" transform="translate(294 -49)">
      <circle id="Elipse_230" data-name="Elipse 230" cx="17.5" cy="17.5" r="17.5" transform="translate(92 801)" fill="rgba(54,206,36,0.1)"/>
    </g>
    <g id="Grupo_4793" data-name="Grupo 4793" transform="translate(-1872.531 1504.274)">
      <path id="Trazado_2882" data-name="Trazado 2882" d="M2370.256-638.56a1.912,1.912,0,0,1,1.18-1.872,1.792,1.792,0,0,1,2.036.477c.549.662,1.067,1.352,1.553,2.061.842,1.231,1.648,2.486,2.471,3.73a.646.646,0,0,1,.126.519.592.592,0,0,1-.935.348c-.587-.374-1.178-.744-1.753-1.137-1.2-.819-2.39-1.65-3.58-2.482a4.768,4.768,0,0,1-.512-.432A1.755,1.755,0,0,1,2370.256-638.56Z" transform="translate(-96.102 -96.068)" fill="#36ce24"/>
      <path id="Trazado_2883" data-name="Trazado 2883" d="M2269.712-609.489a6.3,6.3,0,0,0,1.234,3.206c.181.241.387.464.588.689a.6.6,0,0,1-.018.907q-.854.86-1.714,1.714a.6.6,0,0,1-.932-.018,10.022,10.022,0,0,1-2.8-5.611c-.041-.266-.058-.535-.085-.8a.523.523,0,0,1,.007-.084Z" transform="translate(-0.066 -124.688)" fill="#36ce24"/>
      <path id="Trazado_2884" data-name="Trazado 2884" d="M2461.364-695.827h-3.735a6.385,6.385,0,0,0-1.432-3.457l2.64-2.644A10.056,10.056,0,0,1,2461.364-695.827Z" transform="translate(-175.25 -39.554)" fill="#36ce24"/>
      <path id="Trazado_2885" data-name="Trazado 2885" d="M2401.415-744.876a10.053,10.053,0,0,1,6.1,2.522l-2.642,2.642a6.359,6.359,0,0,0-3.455-1.426Z" transform="translate(-124.799)" fill="#36ce24"/>
      <path id="Trazado_2886" data-name="Trazado 2886" d="M2269.645-695.874h-3.737a10.056,10.056,0,0,1,2.532-6.106l2.637,2.646A6.373,6.373,0,0,0,2269.645-695.874Z" transform="translate(0 -39.506)" fill="#36ce24"/>
      <path id="Trazado_2887" data-name="Trazado 2887" d="M2315.254-741.132a6.37,6.37,0,0,0-3.435,1.414l-2.641-2.644a10.04,10.04,0,0,1,6.075-2.506Z" transform="translate(-39.851 -0.007)" fill="#36ce24"/>
      <path id="Trazado_2888" data-name="Trazado 2888" d="M2465.781-603.5l.18-.112a1.76,1.76,0,0,0,.6-2.383c-.21-.363-.453-.708-.672-1.067a.28.28,0,0,1-.035-.208c.125-.359.284-.707.39-1.071s.158-.729.237-1.112h3.755c-.111.635-.184,1.261-.333,1.869a9.866,9.866,0,0,1-2.578,4.6.613.613,0,0,1-.988.011C2466.156-603.14,2465.975-603.309,2465.781-603.5Z" transform="translate(-184.078 -124.726)" fill="#36ce24"/>
    </g>
  </g>
</svg>
