<svg xmlns="http://www.w3.org/2000/svg" width="35" height="35" viewBox="0 0 35 35">
  <g id="Grupo_4790" data-name="Grupo 4790" transform="translate(-92 -801)">
    <circle id="Elipse_230" data-name="Elipse 230" cx="17.5" cy="17.5" r="17.5" transform="translate(92 801)" fill="rgba(54,206,36,0.1)"/>
    <g id="Grupo_4791" data-name="Grupo 4791" transform="translate(-1732.951 1480.849)">
      <path id="Trazado_2880" data-name="Trazado 2880" d="M1838.951-607.893a3.852,3.852,0,0,0,.836-.614,3.812,3.812,0,0,0,1.237-2.641,1.925,1.925,0,0,1,.58-1.483,1.587,1.587,0,0,1,1.675-.315,1.506,1.506,0,0,1,1.065,1.383,6.681,6.681,0,0,1-1,3.869,7.284,7.284,0,0,1-4.369,3.347c-.26.076-.272.088-.272.362q0,2.4,0,4.8c0,.509-.179.708-.692.711q-2.074.013-4.149,0c-.511,0-.72-.211-.722-.724q-.011-2.653,0-5.307a2.875,2.875,0,0,1,.682-1.932,2.808,2.808,0,0,1,.806-.653,3.069,3.069,0,0,1,1.015-.309,4.811,4.811,0,0,1,1.13-.061A3.966,3.966,0,0,0,1838.951-607.893Z" transform="translate(-0.173 -55.964)" fill="#36ce24"/>
      <path id="Trazado_2881" data-name="Trazado 2881" d="M1978.469-557.151a.936.936,0,0,0,.116.025,2.74,2.74,0,0,1,2.524,2.583c.044.789.033,1.581.037,2.372.005,1.034,0,2.068,0,3.1,0,.692-.184.875-.878.875q-1.926,0-3.851,0c-.546,0-.857-.088-.846-.832.024-1.551.007-3.1.007-4.654,0-.319-.007-.323-.31-.412a7.583,7.583,0,0,1-2.678-1.448.993.993,0,0,1-.095-.09.813.813,0,0,1-.059-.088,8.576,8.576,0,0,0,1.609-3c.076.075.119.112.157.156a4.089,4.089,0,0,0,1.689,1.181,3.549,3.549,0,0,0,.793.186c.483.047.773-.044,1.465.011C1978.288-557.173,1978.4-557.159,1978.469-557.151Z" transform="translate(-129.044 -106.237)" fill="#36ce24"/>
      <circle id="Elipse_231" data-name="Elipse 231" cx="2.195" cy="2.195" r="2.195" transform="translate(1847.949 -668.127)" fill="#36ce24"/>
      <circle id="Elipse_232" data-name="Elipse 232" cx="2.195" cy="2.195" r="2.195" transform="translate(1832.95 -668.127)" fill="#36ce24"/>
      <rect id="Rectángulo_552" data-name="Rectángulo 552" width="1.361" height="2.917" rx="0.68" transform="translate(1841.82 -673.552)" fill="#36ce24"/>
      <rect id="Rectángulo_553" data-name="Rectángulo 553" width="1.361" height="2.917" rx="0.68" transform="translate(1846.912 -672.184) rotate(45)" fill="#36ce24"/>
      <rect id="Rectángulo_554" data-name="Rectángulo 554" width="1.361" height="2.917" rx="0.68" transform="matrix(-0.707, 0.707, -0.707, -0.707, 1840.274, -670.011)" fill="#36ce24"/>
    </g>
  </g>
</svg>
