<svg xmlns="http://www.w3.org/2000/svg" width="35" height="35" viewBox="0 0 35 35">
  <g id="Grupo_5716" data-name="Grupo 5716" transform="translate(-92 -801)">
    <circle id="Elipse_230" data-name="Elipse 230" cx="17.5" cy="17.5" r="17.5" transform="translate(92 801)" fill="rgba(54,206,36,0.1)"/>
  </g>
  <g id="Grupo_5719" data-name="Grupo 5719" transform="translate(8.203 10.596)">
    <path id="Trazado_3865" data-name="Trazado 3865" d="M6849.565,700.053a6.43,6.43,0,0,1,1.027-.93,4.353,4.353,0,0,1,1.965-.858,4.494,4.494,0,0,1,3.48.818,4.416,4.416,0,0,1,1.772,2.639,4.463,4.463,0,0,1-.809,3.854,9.162,9.162,0,0,1-.876.905c-.179.179-.365.352-.549.526-.086.082-.177.16-.285.257a2.464,2.464,0,0,1-.227-.177c-.327-.322-.658-.639-.973-.973a1.688,1.688,0,0,0-1.884-.455,1.645,1.645,0,0,0-1.171,1.538.472.472,0,0,1-.035.093,1.829,1.829,0,0,0-1.769,1.788c-.171.032-.325.049-.473.091a1.764,1.764,0,0,0-.776,2.928c.232.245.477.478.714.718.084.084.164.172.262.275-.083.09-.149.173-.226.244-.194.18-.389.36-.592.531a1.363,1.363,0,0,1-2.25-1.187,3.827,3.827,0,0,1,.188-.612,1.4,1.4,0,0,1-1.769-2.007,1.761,1.761,0,0,1-.885.081,1.29,1.29,0,0,1-.992-.859,1.192,1.192,0,0,1,.277-1.3c1.287-1.306,2.59-2.6,3.888-3.893a1.212,1.212,0,0,1,.131-.1c.327.327.653.647.972.973a2.194,2.194,0,0,0,1.116.627,2.394,2.394,0,0,0,2.2-4.061c-.408-.394-.8-.8-1.2-1.2C6849.732,700.239,6849.655,700.15,6849.565,700.053Z" transform="translate(-6839.352 -697.805)" fill="#36ce24"/>
    <path id="Trazado_3866" data-name="Trazado 3866" d="M6808.484,697.4l-4.6,4.6c-.072-.06-.148-.115-.214-.18q-.63-.625-1.254-1.254a4.4,4.4,0,0,1-1.233-2.4,4.479,4.479,0,0,1,.707-3.37,4.6,4.6,0,0,1,7.063-.681c1.038,1.008,2.048,2.046,3.073,3.068a1.459,1.459,0,0,1,.427.736,1.348,1.348,0,0,1-.6,1.461,1.285,1.285,0,0,1-1.631-.155c-.512-.477-1-.983-1.486-1.481A3,3,0,0,1,6808.484,697.4Z" transform="translate(-6801.11 -692.768)" fill="#36ce24"/>
    <path id="Trazado_3867" data-name="Trazado 3867" d="M6976.56,813.421a.616.616,0,0,1,.47.193c.539.535,1.082,1.065,1.608,1.611a.7.7,0,0,1-.006.98.74.74,0,0,1-.948.109,1.891,1.891,0,0,1-.276-.229q-.617-.609-1.227-1.226a3.408,3.408,0,0,1-.254-.3.619.619,0,0,1-.032-.743A.723.723,0,0,1,6976.56,813.421Z" transform="translate(-6963.092 -804.652)" fill="#36ce24"/>
    <path id="Trazado_3868" data-name="Trazado 3868" d="M6927.836,862.239a.625.625,0,0,1,.451.2c.528.526,1.062,1.048,1.581,1.584a.709.709,0,0,1-.024,1.032.73.73,0,0,1-1,0c-.522-.532-1.054-1.056-1.58-1.584a.648.648,0,0,1-.145-.791A.737.737,0,0,1,6927.836,862.239Z" transform="translate(-6917.887 -849.923)" fill="#36ce24"/>
    <path id="Trazado_3869" data-name="Trazado 3869" d="M6954.591,840.142a.663.663,0,0,1-.374.672.654.654,0,0,1-.8-.089c-.552-.539-1.1-1.081-1.636-1.636a.686.686,0,0,1,0-.951.717.717,0,0,1,.972-.119,1.051,1.051,0,0,1,.162.144c.478.476.954.955,1.433,1.43A.669.669,0,0,1,6954.591,840.142Z" transform="translate(-6940.648 -827.337)" fill="#36ce24"/>
  </g>
</svg>
