<svg xmlns="http://www.w3.org/2000/svg" width="35" height="35" viewBox="0 0 35 35">
  <g id="Grupo_4790" data-name="Grupo 4790" transform="translate(-92 -801)">
    <g id="Grupo_6937" data-name="Grupo 6937">
      <circle id="Elipse_230" data-name="Elipse 230" cx="17.5" cy="17.5" r="17.5" transform="translate(92 801)" fill="rgba(54,206,36,0.1)"/>
    </g>
  </g>
  <g id="Grupo_5715" data-name="Grupo 5715" transform="translate(-309.033 -272.604)">
    <path id="logo-euro-outline" d="M11.455,11.467V9.624h5.539L17.3,7.78H11.455V7.468c0-1.486.633-2.4,3.348-2.4a24.112,24.112,0,0,1,3.937.362l.4-2.689a19.532,19.532,0,0,0-4.476-.489c-4.847,0-6.931,1.705-6.931,4.857V7.78H5.625V9.624H7.737v1.844H5.625v1.844H7.737V14.6c0,3.152,2.083,4.857,6.93,4.857a19.5,19.5,0,0,0,4.472-.491l-.406-2.689a24.046,24.046,0,0,1-3.931.362c-2.715,0-3.347-.775-3.347-2.609v-.718H16.39l.3-1.844Z" transform="translate(313.148 278.751)" fill="#36ce24"/>
  </g>
</svg>
