<svg xmlns="http://www.w3.org/2000/svg" width="35" height="35" viewBox="0 0 35 35">
  <g id="Grupo_5003" data-name="Grupo 5003" transform="translate(-974 -1169)">
    <circle id="Elipse_217" data-name="Elipse 217" cx="17.5" cy="17.5" r="17.5" transform="translate(974 1169)" fill="rgba(54,206,36,0.1)"/>
    <g id="Grupo_4689" data-name="Grupo 4689" transform="translate(759.072 1555.601)">
      <path id="Trazado_2824" data-name="Trazado 2824" d="M234.056-347.019a2.328,2.328,0,0,0-1.258-3.706,2.247,2.247,0,0,0-.106-2.673,2.259,2.259,0,0,0-2.578-.783,2.286,2.286,0,0,0-1.471-1.447,2.289,2.289,0,0,0-2.054.314,2.307,2.307,0,0,0-1.708-1.231,2.274,2.274,0,0,0-1.972.64.758.758,0,0,1-.329-.941.5.5,0,0,1,.036-.08c.9-1.49,1.8-2.982,2.706-4.466a.709.709,0,0,1,.907-.293c.4.2.765.451,1.179.7-.372.207-.7.393-1.025.567a.771.771,0,0,0-.445.744,3,3,0,0,0,4.265,2.782c1.194-.547,2.355-1.166,3.534-1.746a.941.941,0,0,1,.4-.092q.75,0,1.5.027a.631.631,0,0,1,.321.107q4.175,2.935,8.344,5.878a.894.894,0,0,1,.455.688.807.807,0,0,1-1.16.785,1.963,1.963,0,0,1-.279-.177q-1.725-1.225-3.449-2.453a.73.73,0,0,0-.7-.149.672.672,0,0,0-.254,1.125,1.742,1.742,0,0,0,.208.163q1.455,1.036,2.911,2.069a.823.823,0,0,1,.406.8.807.807,0,0,1-1.233.594c-.282-.172-.544-.376-.814-.567-.611-.434-1.215-.878-1.837-1.3A.986.986,0,0,0,238-351.3a.594.594,0,0,0-.561.484.645.645,0,0,0,.239.709c.29.225.595.431.894.645.508.363,1.02.722,1.525,1.089a.77.77,0,0,1,.318.834.764.764,0,0,1-.6.605.871.871,0,0,1-.744-.181c-.668-.48-1.341-.954-2.011-1.432a.722.722,0,0,0-.6-.161.652.652,0,0,0-.526.506.64.64,0,0,0,.256.7c.409.3.826.588,1.237.885a.775.775,0,0,1,.338.807.765.765,0,0,1-.578.629.745.745,0,0,1-.655-.094C235.709-345.846,234.889-346.429,234.056-347.019Z" transform="translate(-1.123 -14.138)" fill="#36ce24"/>
      <path id="Trazado_2825" data-name="Trazado 2825" d="M292.832-369.349l-3.418-2.406c-1.051-.74-2.1-1.477-3.151-2.222a1.154,1.154,0,0,0-.7-.226c-.639,0-1.279-.032-1.918-.023a1.532,1.532,0,0,0-.631.146c-1.181.574-2.352,1.17-3.529,1.753a1.635,1.635,0,0,1-2.081-.357,2.675,2.675,0,0,1-.36-.694.227.227,0,0,1,.091-.2q3.3-1.836,6.609-3.655a.388.388,0,0,1,.267-.01q1.986.579,3.968,1.173a1.039,1.039,0,0,0,.768-.046c.534-.243,1.074-.475,1.612-.709a.814.814,0,0,1,1.16.368q1.506,2.486,3.008,4.975a.817.817,0,0,1-.307,1.268q-.67.424-1.342.845A.269.269,0,0,1,292.832-369.349Z" transform="translate(-50.827)" fill="#36ce24"/>
      <path id="Trazado_2826" data-name="Trazado 2826" d="M280.592-257a.874.874,0,0,1-.725-.471.861.861,0,0,1,.018-.94c.154-.241.335-.464.507-.694q.938-1.253,1.878-2.5a.9.9,0,0,1,1.01-.37.89.89,0,0,1,.675.737.844.844,0,0,1-.156.689q-1.2,1.609-2.407,3.209A.912.912,0,0,1,280.592-257Z" transform="translate(-53.279 -105.064)" fill="#36ce24"/>
      <path id="Trazado_2827" data-name="Trazado 2827" d="M254.534-277.446a3.079,3.079,0,0,1-.262.566c-.637.872-1.286,1.734-1.938,2.594a.929.929,0,0,1-1.34.223.933.933,0,0,1-.154-1.334q.976-1.319,1.971-2.625a.911.911,0,0,1,1.061-.325A1.047,1.047,0,0,1,254.534-277.446Z" transform="translate(-26.745 -90.121)" fill="#36ce24"/>
      <path id="Trazado_2828" data-name="Trazado 2828" d="M222.215-284.405a.909.909,0,0,1-.785-1.372,20.692,20.692,0,0,1,1.316-1.764.9.9,0,0,1,1.219-.1.89.89,0,0,1,.24,1.2c-.411.6-.857,1.173-1.3,1.746A.819.819,0,0,1,222.215-284.405Z" transform="translate(0 -81.524)" fill="#36ce24"/>
      <path id="Trazado_2829" data-name="Trazado 2829" d="M312.14-221.182a3.378,3.378,0,0,1-.264.564c-.357.5-.732.992-1.107,1.482a.933.933,0,0,1-1.338.228.934.934,0,0,1-.159-1.333c.386-.527.777-1.051,1.181-1.565a.892.892,0,0,1,1.032-.283A1.041,1.041,0,0,1,312.14-221.182Z" transform="translate(-80.017 -141.406)" fill="#36ce24"/>
    </g>
  </g>
</svg>

