<svg xmlns="http://www.w3.org/2000/svg" width="13.33" height="21.254" viewBox="0 0 13.33 21.254">
  <g id="Grupo_4685" data-name="Grupo 4685" transform="translate(-55 -1294)">
    <g id="Grupo_4682" data-name="Grupo 4682" transform="translate(55 1294)">
      <g id="Grupo_4680" data-name="Grupo 4680" transform="translate(0 0)">
        <path id="Trazado_2820" data-name="Trazado 2820" d="M194.085-910.681h-.436c-.594,0-1.189,0-1.783,0a.636.636,0,0,1-.683-.688q-.005-.654,0-1.307a.637.637,0,0,1,.688-.686c.657-.005,1.313,0,1.97,0h.245v-.246c0-.588-.014-1.176.007-1.764.008-.238-.061-.325-.293-.385a6.619,6.619,0,0,1-3.284-1.913,6.475,6.475,0,0,1-1.726-4.683,6.672,6.672,0,0,1,1.238-3.806,6.364,6.364,0,0,1,4.375-2.656,6.3,6.3,0,0,1,5.153,1.347,6.374,6.374,0,0,1,2.377,6.692,6.439,6.439,0,0,1-4.965,5.054c-.149.04-.2.088-.2.243.008.7,0,1.4,0,2.119h.238c.643,0,1.286,0,1.928,0a.649.649,0,0,1,.737.739c0,.422,0,.844,0,1.266a.628.628,0,0,1-.67.678c-.663,0-1.327,0-1.99,0h-.242v.246c0,.7,0,1.4,0,2.1a.635.635,0,0,1-.672.679c-.442,0-.885,0-1.327,0a.64.64,0,0,1-.689-.685c0-.692,0-1.383,0-2.075Zm1.341-15.477a3.881,3.881,0,0,0-3.938,3.97,3.943,3.943,0,0,0,3.937,3.9,3.919,3.919,0,0,0,3.945-3.914A3.849,3.849,0,0,0,195.426-926.157Z" transform="translate(-188.788 928.911)" fill="#36ce24"/>
      </g>
    </g>
  </g>
</svg>
