<svg xmlns="http://www.w3.org/2000/svg" width="12.785" height="14.655" viewBox="0 0 12.785 14.655"><g transform="translate(-7.209 -826.981)"><path d="M9.3,829.872c.314-.157.607-.311.907-.451a7.6,7.6,0,0,1,1.961-.64,4.989,4.989,0,0,1,2.678.281c.368.143.739.282,1.091.459a1.873,1.873,0,0,0,1.483.1c.391-.13.767-.3,1.144-.473.238-.107.461-.248.7-.357a.47.47,0,0,1,.722.464c0,.791,0,1.582,0,2.373,0,1.063,0,2.125,0,3.188a.523.523,0,0,1-.29.512,7.545,7.545,0,0,1-2.338.884,3.257,3.257,0,0,1-1.978-.342c-.314-.148-.624-.306-.947-.432a3.825,3.825,0,0,0-2.591-.02c-.543.17-1.064.407-1.6.613a.124.124,0,0,0-.09.16c.176,1.254.345,2.508.516,3.763.039.288.081.575.117.863A.709.709,0,1,1,9.392,841q-.3-2.207-.6-4.414-.294-2.15-.591-4.3c-.135-.985-.27-1.971-.4-2.957a.289.289,0,0,0-.12-.21,1.195,1.195,0,0,1,.483-2.115,1.191,1.191,0,0,1,1.131,1.969.272.272,0,0,0-.076.267C9.255,829.45,9.276,829.657,9.3,829.872Z" transform="translate(0 0)" fill="#6e8d98"/></g></svg>