<svg xmlns="http://www.w3.org/2000/svg" width="15.509" height="10.973" viewBox="0 0 15.509 10.973"><g transform="translate(-1416.187 170.913)"><path d="M1589.433-146.023c.016-.117.031-.226.047-.334a4.169,4.169,0,0,0-.017-1.345,4.268,4.268,0,0,0-1.329-2.446,4.215,4.215,0,0,0-2.221-1.093,7.214,7.214,0,0,0-.79-.059c-.119-.007-.13-.008-.13-.125,0-.644,0-1.288,0-1.933a.57.57,0,0,1,.613-.6q3.358,0,6.716,0a.582.582,0,0,1,.621.623q0,3.351,0,6.7a.586.586,0,0,1-.614.622c-.927,0-1.855,0-2.783,0C1589.516-146.014,1589.483-146.019,1589.433-146.023Z" transform="translate(-161.251 -16.192)" fill="#6e8d98"/><path d="M1520.691-69.639a3.23,3.23,0,0,1,3.214,3.227,3.234,3.234,0,0,1-3.229,3.214,3.233,3.233,0,0,1-3.213-3.24A3.229,3.229,0,0,1,1520.691-69.639Z" transform="translate(-96.743 -96.741)" fill="#6e8d98"/><path d="M1423.289-167.466c-.256.069-.5.118-.734.2a4.274,4.274,0,0,0-2.747,2.8,4.964,4.964,0,0,0-.149.651c-.017.087-.064.094-.133.094h-1.664c-.354,0-.707,0-1.061,0a.569.569,0,0,1-.537-.3.561.561,0,0,1,.039-.621l3.149-4.794c.257-.392.513-.785.771-1.176a.568.568,0,0,1,.78-.228.667.667,0,0,1,.216.2q1.017,1.535,2.024,3.077C1423.259-167.53,1423.271-167.5,1423.289-167.466Z" transform="translate(0 0)" fill="#6e8d98"/></g></svg>