<svg xmlns="http://www.w3.org/2000/svg" width="104" height="104" viewBox="0 0 104 104">
  <g id="Grupo_5012" data-name="Grupo 5012" transform="translate(-460 -1595)">
    <circle id="Elipse_220" data-name="Elipse 220" cx="52" cy="52" r="52" transform="translate(460 1595)" fill="rgba(54,206,36,0.1)"/>
    <g id="Grupo_4694" data-name="Grupo 4694" transform="translate(-633.594 3212.21)">
      <path id="Trazado_2856" data-name="Trazado 2856" d="M1145.262-1592.21a26.694,26.694,0,0,1,26.637,26.672,26.7,26.7,0,0,1-26.668,26.644,26.7,26.7,0,0,1-26.637-26.726A26.694,26.694,0,0,1,1145.262-1592.21Zm-.041,4.455a22.207,22.207,0,0,0-22.171,22.24,22.206,22.206,0,0,0,22.2,22.164,22.205,22.205,0,0,0,22.2-22.215A22.2,22.2,0,0,0,1145.221-1587.755Z" fill="#36ce24"/>
      <path id="Trazado_2857" data-name="Trazado 2857" d="M1180.508-1533.31h14.472c1.323,0,1.87.567,1.82,1.879a17.781,17.781,0,0,1-13.85,16.928,17.831,17.831,0,0,1-21.19-13.183,17.758,17.758,0,0,1,11-20.779,17.274,17.274,0,0,1,6.1-1.148,1.488,1.488,0,0,1,1.644,1.645q.007,6.975,0,13.95Z" transform="translate(-33.788 -33.715)" fill="#36ce24"/>
    </g>
  </g>
</svg>
