<svg xmlns="http://www.w3.org/2000/svg" width="104" height="104" viewBox="0 0 104 104">
  <g id="Grupo_5820" data-name="Grupo 5820" transform="translate(12808 15414)">
    <g id="Grupo_5786" data-name="Grupo 5786" transform="translate(-12900 -17009)">
      <circle id="Elipse_152" data-name="Elipse 152" cx="52" cy="52" r="52" transform="translate(92 1595)" fill="rgba(54,206,36,0.1)"/>
    </g>
    <path id="random" d="M19.736,13.306a54.909,54.909,0,0,0-4.06,8.09q-.652-1.334-1.1-2.148a19.468,19.468,0,0,0-1.2-1.882,8.244,8.244,0,0,0-1.512-1.674A7,7,0,0,0,10,14.654a6.6,6.6,0,0,0-2.413-.429H.949A.914.914,0,0,1,0,13.276V7.587a.914.914,0,0,1,.949-.949H7.587q7.408,0,12.151,6.668Zm33.37,23.678a.923.923,0,0,1-.267.682l-9.484,9.484a.923.923,0,0,1-.682.267.962.962,0,0,1-.949-.949v-5.69q-.949,0-2.52.015t-2.4.03q-.829.015-2.164-.03t-2.1-.148q-.769-.1-1.9-.311a7.958,7.958,0,0,1-1.868-.549q-.739-.341-1.719-.845a8.453,8.453,0,0,1-1.748-1.186q-.769-.682-1.63-1.586a16.928,16.928,0,0,1-1.66-2.059,59.675,59.675,0,0,0,4.03-8.09q.652,1.334,1.1,2.148a19.469,19.469,0,0,0,1.2,1.882,8.244,8.244,0,0,0,1.512,1.674,7,7,0,0,0,1.868,1.037,6.609,6.609,0,0,0,2.415.429h7.587V27.5a.914.914,0,0,1,.949-.949,1.113,1.113,0,0,1,.711.3L52.837,36.3a.923.923,0,0,1,.267.682Zm0-26.553a.923.923,0,0,1-.267.682L43.355,20.6a.923.923,0,0,1-.682.267.96.96,0,0,1-.947-.949v-5.69H34.14a7.144,7.144,0,0,0-2.579.444A5.8,5.8,0,0,0,29.517,16,12.177,12.177,0,0,0,28,17.824a24.524,24.524,0,0,0-1.334,2.3q-.949,1.838-2.312,5.067-.86,1.956-1.466,3.29t-1.6,3.111a25.471,25.471,0,0,1-1.9,2.964A23.417,23.417,0,0,1,17.2,37.012a12.182,12.182,0,0,1-2.667,2.03,14.491,14.491,0,0,1-3.157,1.245,14.286,14.286,0,0,1-3.793.488H.949A.914.914,0,0,1,0,39.827v-5.69a.914.914,0,0,1,.949-.949H7.587a7.144,7.144,0,0,0,2.579-.444,5.8,5.8,0,0,0,2.045-1.334,12.177,12.177,0,0,0,1.512-1.822,24.525,24.525,0,0,0,1.334-2.3q.949-1.838,2.312-5.067.86-1.956,1.466-3.29t1.6-3.111a25.47,25.47,0,0,1,1.9-2.964A23.418,23.418,0,0,1,24.525,10.4a12.182,12.182,0,0,1,2.667-2.03,14.491,14.491,0,0,1,3.157-1.245,14.286,14.286,0,0,1,3.793-.488h7.587V.949A.914.914,0,0,1,42.677,0a1.113,1.113,0,0,1,.711.3L52.84,9.749a.923.923,0,0,1,.267.682Z" transform="translate(-12783 -15386)" fill="#36ce24"/>
  </g>
</svg>
