<svg xmlns="http://www.w3.org/2000/svg" width="35" height="35" viewBox="0 0 35 35">
  <g id="Grupo_5060" data-name="Grupo 5060" transform="translate(3.125 -818.048)">
    <circle id="Elipse_244" data-name="Elipse 244" cx="17.5" cy="17.5" r="17.5" transform="translate(-3.125 818.048)" fill="#023d51"/>
    <path id="Trazado_2707" data-name="Trazado 2707" d="M9.659,830.362c.367-.183.71-.364,1.061-.528a8.883,8.883,0,0,1,2.293-.748,5.834,5.834,0,0,1,3.131.329c.43.167.864.33,1.276.536a2.19,2.19,0,0,0,1.734.116c.457-.152.9-.356,1.338-.553.279-.125.54-.29.817-.418a.549.549,0,0,1,.844.543c0,.925,0,1.85,0,2.775,0,1.242,0,2.485,0,3.727a.611.611,0,0,1-.339.6,8.819,8.819,0,0,1-2.733,1.033,3.808,3.808,0,0,1-2.312-.4c-.367-.173-.73-.358-1.107-.5a4.472,4.472,0,0,0-3.03-.024c-.635.2-1.244.476-1.866.717a.145.145,0,0,0-.105.187c.205,1.466.4,2.933.6,4.4.046.336.095.672.137,1.009a.829.829,0,1,1-1.643.219q-.354-2.58-.7-5.16-.344-2.514-.69-5.027c-.158-1.152-.316-2.3-.468-3.457a.338.338,0,0,0-.14-.245,1.4,1.4,0,0,1,.564-2.473,1.392,1.392,0,0,1,1.323,2.3.318.318,0,0,0-.089.312C9.6,829.867,9.625,830.11,9.659,830.362Z" transform="translate(0)" fill="#fff"/>
  </g>
</svg>
