<svg xmlns="http://www.w3.org/2000/svg" width="20.086" height="20.091" viewBox="0 0 20.086 20.091">
  <g id="Grupo_4684" data-name="Grupo 4684" transform="translate(-165.5 -1276.5)">
    <path id="Sustracción_7" data-name="Sustracción 7" d="M6.854,19.091a6.84,6.84,0,0,1-1.378-.141A6.919,6.919,0,0,1,2.9,17.84a7.074,7.074,0,0,1-1.1-.958,6.612,6.612,0,0,1-1.3-2.02,6.749,6.749,0,0,1-.5-2.293,6.891,6.891,0,0,1,1.439-4.5,6.7,6.7,0,0,1,1.09-1.112,6.821,6.821,0,0,1,6.1-1.271,6.993,6.993,0,0,1,1.755.758l1.134-1.134,2.3-2.3H10.963a.577.577,0,0,1-.425-.136.575.575,0,0,1-.136-.425c0-.526,0-1.219,0-1.916A.476.476,0,0,1,10.93,0h7.625a.475.475,0,0,1,.53.533c0,2.556,0,5.122,0,7.626a.532.532,0,0,1-.134.388.519.519,0,0,1-.383.137l-.995,0-.98,0a.472.472,0,0,1-.518-.525c0-.631,0-1.271,0-1.89V6.256q0-.387,0-.775V5.309L12.993,8.395l-.333.334a6.728,6.728,0,0,1,.73,5.359,7.028,7.028,0,0,1-.43,1.161,6.521,6.521,0,0,1-.614,1.031,6.66,6.66,0,0,1-.793.9,7.444,7.444,0,0,1-.969.774A6.654,6.654,0,0,1,6.854,19.091ZM6.833,8.267a4.045,4.045,0,1,0,1.58.319A4.033,4.033,0,0,0,6.833,8.267Z" transform="translate(166 1277)" fill="#36ce24" stroke="rgba(0,0,0,0)" stroke-miterlimit="10" stroke-width="1"/>
  </g>
</svg>
