<svg xmlns="http://www.w3.org/2000/svg" width="35" height="35" viewBox="0 0 35 35">
  <g id="Grupo_5002" data-name="Grupo 5002" transform="translate(-680 -1169)">
    <circle id="Elipse_216" data-name="Elipse 216" cx="17.5" cy="17.5" r="17.5" transform="translate(680 1169)" fill="rgba(54,206,36,0.1)"/>
    <g id="Grupo_4688" data-name="Grupo 4688" transform="translate(1157.656 1834.661)">
      <path id="Trazado_2816" data-name="Trazado 2816" d="M-320.509-645.245h-3.06c.14-.172.262-.32.383-.469a1.136,1.136,0,0,0,.18-1.389,1.153,1.153,0,0,0-1.3-.486c0-.348-.009-.692,0-1.036a1.2,1.2,0,0,0-.38-.927q-1.587-1.588-3.163-3.186c-.04-.04-.081-.079-.118-.122a.425.425,0,0,1-.019-.6.433.433,0,0,1,.6-.032c.355.281.7.569,1.052.859a.392.392,0,0,0,.444.113c.187-.086.2-.25.2-.428q0-1.82,0-3.641a2.014,2.014,0,0,1,.007-.226.542.542,0,0,1,.54-.5.524.524,0,0,1,.491.545c0,.61,0,1.22,0,1.83a.341.341,0,0,0,.291.378.338.338,0,0,0,.392-.371c0-.692,0-1.383,0-2.075a.993.993,0,0,1,.029-.26.525.525,0,0,1,.535-.389.514.514,0,0,1,.467.467,1.647,1.647,0,0,1,.007.207c0,.679,0,1.358,0,2.037,0,.254.141.4.36.386a.345.345,0,0,0,.327-.386c0-.478,0-.956,0-1.434a.531.531,0,0,1,.518-.592.549.549,0,0,1,.511.589c0,.685,0,1.371,0,2.056a.767.767,0,0,0,.025.223.313.313,0,0,0,.344.234.311.311,0,0,0,.306-.26.95.95,0,0,0,.017-.206c0-.453,0-.905,0-1.358a.519.519,0,0,1,.506-.582.544.544,0,0,1,.527.59q0,2.509,0,5.018a.674.674,0,0,1-.094.316q-.352.613-.726,1.213a1.392,1.392,0,0,0-.211.768c.006.962,0,1.924,0,2.886Z" transform="translate(-130.856 -0.006)" fill="#36ce24"/>
      <path id="Trazado_2817" data-name="Trazado 2817" d="M-378.236-508.53v-3.06c.21.17.394.327.586.473a1.121,1.121,0,0,0,1.807-.722,3.5,3.5,0,0,0,0-.49c.3,0,.632-.011.962,0a1.242,1.242,0,0,0,.975-.4q1.592-1.6,3.2-3.176a.836.836,0,0,1,.273-.191.4.4,0,0,1,.466.158.426.426,0,0,1-.027.525q-.429.538-.871,1.067a.384.384,0,0,0-.107.428c.079.179.231.207.406.206q1.821,0,3.642,0a2.05,2.05,0,0,1,.264.011.54.54,0,0,1,.487.533.523.523,0,0,1-.54.5c-.61.005-1.22,0-1.83,0-.256,0-.406.154-.384.38a.341.341,0,0,0,.386.3c.673,0,1.346,0,2.019,0a1.6,1.6,0,0,1,.207.006.543.543,0,0,1,.485.537.508.508,0,0,1-.5.492c-.295.016-.591.007-.887.007-.428,0-.855,0-1.283,0-.281,0-.426.116-.428.337s.153.35.44.35c.465,0,.931,0,1.4,0a.527.527,0,0,1,.577.514.543.543,0,0,1-.567.513c-.685,0-1.371,0-2.057,0a.876.876,0,0,0-.242.025.312.312,0,0,0-.237.342.311.311,0,0,0,.257.308,1.033,1.033,0,0,0,.225.019c.453,0,.906,0,1.358,0a.513.513,0,0,1,.566.5.538.538,0,0,1-.568.53q-2.528,0-5.057,0a.635.635,0,0,1-.3-.093q-.628-.363-1.246-.744a1.28,1.28,0,0,0-.7-.192c-.975,0-1.95,0-2.925,0Z" transform="translate(-84.509 -130.839)" fill="#36ce24"/>
      <path id="Trazado_2818" data-name="Trazado 2818" d="M-459.635-652.83c-.314,0-.659.007-1,0a1.165,1.165,0,0,0-.895.366q-1.6,1.6-3.213,3.191c-.264.262-.508.3-.706.121s-.173-.422.065-.714c.263-.321.524-.644.789-.963a.37.37,0,0,0,.09-.415.369.369,0,0,0-.39-.2q-1.83,0-3.661,0a2.005,2.005,0,0,1-.263-.012.54.54,0,0,1-.484-.536.523.523,0,0,1,.544-.493c.61,0,1.22,0,1.83,0a.341.341,0,0,0,.379-.29.338.338,0,0,0-.37-.392c-.686,0-1.371,0-2.057,0a1.064,1.064,0,0,1-.279-.03.525.525,0,0,1-.389-.535.517.517,0,0,1,.467-.467,1.56,1.56,0,0,1,.207-.008c.673,0,1.346,0,2.019,0,.262,0,.406-.125.405-.341s-.151-.344-.406-.345c-.478,0-.956,0-1.434,0a.526.526,0,0,1-.573-.519.544.544,0,0,1,.571-.509c.685,0,1.371,0,2.057,0a.966.966,0,0,0,.206-.015.336.336,0,0,0,.272-.338.333.333,0,0,0-.283-.328,1.135,1.135,0,0,0-.206-.014c-.447,0-.893,0-1.34,0a.518.518,0,0,1-.581-.505.538.538,0,0,1,.572-.526q2.528,0,5.057,0a.636.636,0,0,1,.3.095c.4.232.8.469,1.2.716a1.412,1.412,0,0,0,.785.219c.962-.007,1.925,0,2.887,0h.232v3.058c-.211-.171-.395-.329-.588-.475a1.121,1.121,0,0,0-1.8.731A3.54,3.54,0,0,0-459.635-652.83Z" transform="translate(-0.005 0)" fill="#36ce24"/>
      <path id="Trazado_2819" data-name="Trazado 2819" d="M-468.623-566.258h3.059c-.17.21-.323.4-.473.584a1.074,1.074,0,0,0-.233.935,1.1,1.1,0,0,0,1.3.862c.043-.008.086-.012.146-.02,0,.359.005.71,0,1.061a1.135,1.135,0,0,0,.355.861q1.6,1.61,3.2,3.226c.04.04.082.079.118.122a.432.432,0,0,1,0,.583.423.423,0,0,1-.581.038c-.335-.265-.663-.54-.994-.81a1.933,1.933,0,0,0-.193-.151.336.336,0,0,0-.522.252,1.757,1.757,0,0,0-.006.207q0,1.792,0,3.584a1.928,1.928,0,0,1-.01.245.544.544,0,0,1-.532.489.523.523,0,0,1-.5-.54c-.005-.61,0-1.22,0-1.83,0-.249-.142-.4-.361-.386a.339.339,0,0,0-.322.386c0,.673,0,1.346,0,2.018a1.552,1.552,0,0,1-.006.207.545.545,0,0,1-.536.487.518.518,0,0,1-.5-.519c-.007-.113,0-.226,0-.339,0-.61,0-1.22,0-1.83,0-.265-.122-.408-.336-.411s-.35.149-.352.419c0,.465,0,.931,0,1.4a.533.533,0,0,1-.512.6.552.552,0,0,1-.517-.6c0-.679,0-1.358,0-2.037a.773.773,0,0,0-.03-.241.311.311,0,0,0-.334-.222.312.312,0,0,0-.31.255.9.9,0,0,0-.018.206c0,.446,0,.893,0,1.339,0,.377-.2.61-.519.606a.549.549,0,0,1-.514-.6q0-2.5,0-5a.675.675,0,0,1,.089-.318c.212-.371.427-.741.661-1.1a1.73,1.73,0,0,0,.284-1.013c-.014-.918,0-1.836,0-2.754Z" transform="translate(0 -84.493)" fill="#36ce24"/>
    </g>
  </g>
</svg>
