<svg xmlns="http://www.w3.org/2000/svg" width="104" height="104" viewBox="0 0 104 104">
  <g id="Grupo_5010" data-name="Grupo 5010" transform="translate(-92 -1595)">
    <circle id="Elipse_152" data-name="Elipse 152" cx="52" cy="52" r="52" transform="translate(92 1595)" fill="rgba(54,206,36,0.1)"/>
    <g id="Grupo_4691" data-name="Grupo 4691" transform="translate(-1202.309 2742.189)">
      <path id="Trazado_2831" data-name="Trazado 2831" d="M1346.177-1070.945h-28.4c-.181,0-.362,0-.542,0a1.65,1.65,0,0,1-1.929-1.937,6.352,6.352,0,0,1,.437-2.218q2.76-6.871,5.469-13.762a3.921,3.921,0,0,0,.258-1.4q.022-13.414.011-26.827c0-.2-.008-.4.006-.6a1.419,1.419,0,0,1,1.274-1.443,4.244,4.244,0,0,1,.778-.055q22.668,0,45.337,0c.181,0,.363-.008.542.007a1.512,1.512,0,0,1,1.542,1.647c.016,1.346,0,2.693,0,4.039q0,11.636.011,23.271a3.919,3.919,0,0,0,.265,1.4q2.778,7.058,5.608,14.1a5.246,5.246,0,0,1,.231,2.545,1.242,1.242,0,0,1-1.074,1.147,5.516,5.516,0,0,1-1.015.091Q1360.586-1070.941,1346.177-1070.945Zm-20.494-44.567v24.01h41.072v-24.01Zm26.436,39.923-1.218-3.752h-9.355l-1.21,3.752Z" transform="translate(0)" fill="#36ce24"/>
    </g>
  </g>
</svg>
