<svg xmlns="http://www.w3.org/2000/svg" width="35" height="35" viewBox="0 0 35 35"><g transform="translate(-62 -1078)"><circle cx="17.5" cy="17.5" r="17.5" transform="translate(62 1078)" fill="#023d51"/><g transform="translate(-1410.598 1213.375)"><path d="M1526.131-117.468c.005-.052.012-.089.012-.126,0-1.874,0-3.749,0-5.623a2.565,2.565,0,0,0-.718-1.777,3.42,3.42,0,0,0-3-.8v2.582c0,1,0,2,0,3a.673.673,0,0,1-.96.652.687.687,0,0,1-.393-.679q0-2.654,0-5.307v-.263c-.462,0-.891,0-1.319,0a1.7,1.7,0,0,0-.356.056,2.618,2.618,0,0,0-2.048,2.583c-.011,1.159,0,2.318,0,3.478,0,.059.009.118.014.2h.25c.534,0,1.069-.007,1.6,0a1.972,1.972,0,0,1,1.488.694,2.1,2.1,0,0,1,.511,1.325Zm-7.277,8.139c.021.474.032.923.065,1.371a.684.684,0,0,0,.782.709q1.952,0,3.9,0a.69.69,0,0,0,.782-.733c.021-.3.023-.6.036-.9q.149-3.484.3-6.968c0-.079,0-.158,0-.23h-2.555a2.105,2.105,0,0,1,.5,1.4c0,1.084.012,2.167-.009,3.251a2.363,2.363,0,0,1-.179.9,1.927,1.927,0,0,1-1.806,1.2C1520.074-109.312,1519.474-109.328,1518.854-109.328Zm4.94-18.993a2.055,2.055,0,0,0-2.047-2.055,2.054,2.054,0,0,0-2.057,2.044,2.056,2.056,0,0,0,2.058,2.067A2.056,2.056,0,0,0,1523.794-128.321Z" transform="translate(-30.849 0)" fill="#fff"/><path d="M1526.131-71.706h-4.925a2.1,2.1,0,0,0-.511-1.325,1.972,1.972,0,0,0-1.488-.694c-.534-.01-1.069,0-1.6,0h-.25c-.006-.081-.014-.14-.014-.2,0-1.159-.009-2.319,0-3.478a2.618,2.618,0,0,1,2.048-2.583,1.7,1.7,0,0,1,.356-.056c.428-.007.857,0,1.319,0v.263q0,2.653,0,5.307a.687.687,0,0,0,.393.679.673.673,0,0,0,.96-.652c0-1,0-2,0-3v-2.582a3.42,3.42,0,0,1,3,.8,2.565,2.565,0,0,1,.718,1.777c.007,1.874,0,3.749,0,5.623C1526.143-71.8,1526.136-71.758,1526.131-71.706Z" transform="translate(-30.849 -45.761)" fill="#fff"/><path d="M1484.888,7.622c0-.668,0-1.3,0-1.931a.694.694,0,0,1,.777-.779q1.285,0,2.571,0a.69.69,0,0,1,.76.772c0,.557-.006,1.113-.009,1.67,0,.081,0,.162,0,.267.259,0,.5,0,.735,0a.677.677,0,0,1,.739.725q.01,1.647,0,3.3a.675.675,0,0,1-.742.723q-2.774,0-5.549,0a.68.68,0,0,1-.749-.739q-.008-1.636,0-3.272a.68.68,0,0,1,.755-.732C1484.41,7.621,1484.641,7.622,1484.888,7.622Zm1.378-1.346V7.61h1.355V6.276Z" transform="translate(0 -123.047)" fill="#fff"/><path d="M1534.108,34.363c.62,0,1.22.017,1.819,0a1.928,1.928,0,0,0,1.807-1.2,2.363,2.363,0,0,0,.178-.9c.021-1.083.007-2.167.009-3.251a2.1,2.1,0,0,0-.5-1.4h2.555c0,.072,0,.151,0,.23q-.149,3.484-.3,6.968c-.013.3-.015.6-.036.9a.69.69,0,0,1-.782.733q-1.951,0-3.9,0a.685.685,0,0,1-.782-.709C1534.14,35.286,1534.13,34.837,1534.108,34.363Z" transform="translate(-46.103 -143.691)" fill="#fff"/><path d="M1547.453-128.321a2.055,2.055,0,0,1-2.047,2.056,2.056,2.056,0,0,1-2.058-2.067,2.054,2.054,0,0,1,2.058-2.044A2.054,2.054,0,0,1,1547.453-128.321Z" transform="translate(-54.508 0)" fill="#fff"/></g></g></svg>