<svg xmlns="http://www.w3.org/2000/svg" width="19.847" height="19.847" viewBox="0 0 19.847 19.847"><path d="M2.481,0A2.481,2.481,0,0,0,0,2.481V17.366a2.481,2.481,0,0,0,2.481,2.481H17.366a2.481,2.481,0,0,0,2.481-2.481V2.481A2.481,2.481,0,0,0,17.366,0ZM8.15,7.483H6.513C6.475,5.144,8.286,4.342,9.931,4.342c1.733,0,3.316.906,3.316,2.779A3.027,3.027,0,0,1,11.7,9.672c-.914.694-1.253.953-1.253,1.844v.44H8.828l-.009-.574a2.826,2.826,0,0,1,1.449-2.465c.732-.551,1.2-.913,1.2-1.7a1.441,1.441,0,0,0-1.63-1.449A1.583,1.583,0,0,0,8.15,7.483ZM9.7,15.476a1.162,1.162,0,1,1,0-2.316,1.163,1.163,0,1,1,0,2.316Z" fill-rule="evenodd"/></svg>