<svg xmlns="http://www.w3.org/2000/svg" width="28.064" height="28.064" viewBox="0 0 28.064 28.064">
  <ellipse id="Elipse_507" data-name="Elipse 507" cx="14.032" cy="14.032" rx="14.032" ry="14.032" fill="rgba(54,206,36,0.1)"/>
  <g id="Grupo_7484" data-name="Grupo 7484" transform="translate(8.989 6.805)">
    <path id="Trazado_4856" data-name="Trazado 4856" d="M1473.6-1429.947h-1.132c-.357,0-.52-.13-.561-.485a2.806,2.806,0,0,1,.756-2.4,5.544,5.544,0,0,1,1.594-1.17,3.006,3.006,0,0,0,.735-.483,1.055,1.055,0,0,0-.171-1.717,2.123,2.123,0,0,0-2.275-.044,2.669,2.669,0,0,0-.583.528c-.216.228-.409.475-.612.715a.445.445,0,0,1-.691.079q-.859-.65-1.713-1.306a.421.421,0,0,1-.129-.6,6.029,6.029,0,0,1,2.031-2.111,5.643,5.643,0,0,1,2.406-.763,5.322,5.322,0,0,1,3.543.912,4.158,4.158,0,0,1,1.955,2.742,3.223,3.223,0,0,1-1.178,3.348c-.417.325-.886.584-1.327.879a2.249,2.249,0,0,0-.859,1.114,1.041,1.041,0,0,0-.049.253.509.509,0,0,1-.555.506Z" transform="translate(-1468.746 1439.727)" fill="#36ce23"/>
    <path id="Trazado_4857" data-name="Trazado 4857" d="M1493.036-1364.58h1.255a.441.441,0,0,1,.489.477q0,1.269,0,2.538a.441.441,0,0,1-.489.478q-1.255,0-2.509,0a.446.446,0,0,1-.492-.478q-.006-1.268,0-2.537a.445.445,0,0,1,.492-.477Z" transform="translate(-1488.143 1375.059)" fill="#36ce23"/>
  </g>
</svg>
