<svg xmlns="http://www.w3.org/2000/svg" width="35" height="35" viewBox="0 0 35 35"><g transform="translate(-62 -5578)"><circle cx="17.5" cy="17.5" r="17.5" transform="translate(62 5578)" fill="#023d51"/><g transform="translate(-404.577 4688.82)"><path d="M479.037,898.186a3.489,3.489,0,0,1,3.47,3.056,6.464,6.464,0,0,1-.032,1.144.294.294,0,0,0,.084.263q2.815,2.807,5.623,5.621a.246.246,0,0,0,.25.074,3.5,3.5,0,0,1,4.151,2.819,3.344,3.344,0,0,1-.156,1.839.508.508,0,0,1-.864.193c-.3-.287-.586-.579-.874-.874a.254.254,0,0,0-.261-.094c-.212.044-.427.074-.642.1-.091.01-.122.046-.13.134a1.73,1.73,0,0,1-.064.394.58.58,0,0,0,.236.686c.24.206.454.443.676.67a.513.513,0,0,1-.207.9,3.508,3.508,0,0,1-4.655-2.849,6.4,6.4,0,0,1,.03-1.143.31.31,0,0,0-.088-.278q-2.8-2.795-5.6-5.6a.275.275,0,0,0-.277-.09,3.508,3.508,0,0,1-4.168-2.994,3.389,3.389,0,0,1,.169-1.626.514.514,0,0,1,.908-.2c.277.274.555.548.826.828a.29.29,0,0,0,.3.11c.205-.047.418-.063.624-.106a.184.184,0,0,0,.115-.119c.044-.223.08-.449.1-.675a.281.281,0,0,0-.067-.2c-.285-.3-.581-.584-.87-.878a.513.513,0,0,1,.208-.906A3.269,3.269,0,0,1,479.037,898.186Z" transform="translate(0 -0.068)" fill="#fff"/><path d="M507.892,1043.164l-2.521-2.52,3.291-3.29,2.521,2.52Z" transform="translate(-27.865 -129.923)" fill="#fff"/><path d="M617.889,932.873l2.511,2.511-2.969,2.967-2.51-2.512Z" transform="translate(-130.084 -32.434)" fill="#fff"/><path d="M672.371,902.252l-2.581-2.583c.019-.022.05-.06.084-.094q.625-.626,1.251-1.251a.525.525,0,0,1,.842,0q.869.866,1.736,1.735a.528.528,0,0,1,.007.854C673.263,901.362,672.814,901.809,672.371,902.252Z" transform="translate(-181.28)" fill="#fff"/><path d="M476.892,1098.966l2.339,2.338c-.043.022-.093.052-.145.075-.917.4-1.835.8-2.751,1.2a.538.538,0,0,1-.635-.073.518.518,0,0,1-.084-.646q.6-1.383,1.208-2.766C476.844,1099.052,476.869,1099.009,476.892,1098.966Z" transform="translate(-0.034 -187.411)" fill="#fff"/></g></g></svg>