<svg xmlns="http://www.w3.org/2000/svg" width="35" height="35" viewBox="0 0 35 35">
  <g id="Group_6937" data-name="Group 6937" transform="translate(-62 -6457)">
    <circle id="Ellipse_429" data-name="Ellipse 429" cx="17.5" cy="17.5" r="17.5" transform="translate(62 6457)" fill="#023d51"/>
    <g id="bxs-yin-yang" transform="translate(67.007 6462)">
      <path id="Path_2908" data-name="Path 2908" d="M19.213,5.788A9.456,9.456,0,0,0,12.517,3h-.025a9.5,9.5,0,1,0,6.722,2.788Zm-5.286,9.55A1.424,1.424,0,1,1,12.5,16.762,1.425,1.425,0,0,1,13.927,15.338ZM7.116,7.131A7.564,7.564,0,0,1,12.492,4.9h.025a3.476,3.476,0,0,1,3.374,2.25c.348,1.473-1.044,3.111-3.819,4.5-4.86,2.425-5.049,5.062-4.728,6.418l.008.02c-.078-.071-.161-.139-.236-.214a7.594,7.594,0,0,1,0-10.737Z" transform="translate(0 0)" fill="#fff"/>
      <path id="Path_2909" data-name="Path 2909" d="M16.374,10.437A1.437,1.437,0,1,1,14.937,9,1.437,1.437,0,0,1,16.374,10.437Z" transform="translate(-3.859 -2.21)" fill="#fff"/>
    </g>
  </g>
</svg>
